<svg id="Layer_1" data-name="Layer 1" xmlns="http://www.w3.org/2000/svg" viewBox="0 0 512.54 67.73"><defs><style>.cls-1{fill:none;stroke:#fff;stroke-width:2px;}</style></defs><title>title</title><path class="cls-1" d="M515.12,347a10.83,10.83,0,0,1,4.34,3.35,10.71,10.71,0,0,1,2.12,4.79,33.11,33.11,0,0,1,.34,5.5l-.07,23.48h-10V360.41a7.79,7.79,0,0,0-.68-3.49q-1.3-2.6-4.79-2.6a5.6,5.6,0,0,0-5.57,3.35,10.52,10.52,0,0,0-.79,4.27v22.18h-9.81V361.95a12.46,12.46,0,0,0-.68-4.82q-1.23-2.7-4.82-2.7-4.17,0-5.61,2.7a10.4,10.4,0,0,0-.79,4.58v22.42h-9.88V346.94h9.47v5.43a15.67,15.67,0,0,1,3.42-4.14,13.52,13.52,0,0,1,14.25-.31,10.94,10.94,0,0,1,3.21,4.48,12.38,12.38,0,0,1,4.75-4.82,14.5,14.5,0,0,1,6.7-1.54A13,13,0,0,1,515.12,347Z" transform="translate(-467.46 -332.44)"/><path class="cls-1" d="M545.63,361.47a15.4,15.4,0,0,0,3.89-.85,2.93,2.93,0,0,0,2.1-2.77,3.27,3.27,0,0,0-1.61-3.16,10.18,10.18,0,0,0-4.73-.87q-3.5,0-5,1.71a7,7,0,0,0-1.39,3.42h-9.4a14.25,14.25,0,0,1,2.75-8q3.88-4.92,13.32-4.92a23.75,23.75,0,0,1,10.92,2.43q4.77,2.43,4.77,9.16v17.09q0,1.78.07,4.31a5.41,5.41,0,0,0,.58,2.6,3.48,3.48,0,0,0,1.44,1.13v1.44h-10.6a10.82,10.82,0,0,1-.62-2.12q-.17-1-.27-2.26a20.11,20.11,0,0,1-4.68,3.73,14.13,14.13,0,0,1-7.15,1.81,12.34,12.34,0,0,1-8.41-2.89q-3.32-2.89-3.32-8.19,0-6.87,5.34-9.95a23.84,23.84,0,0,1,8.61-2.39Zm6,4.55a10.78,10.78,0,0,1-1.89.94,16,16,0,0,1-2.62.67l-2.22.41a14.59,14.59,0,0,0-4.48,1.33,4.45,4.45,0,0,0-2.3,4.14,4.32,4.32,0,0,0,1.41,3.61,5.34,5.34,0,0,0,3.42,1.11,10.18,10.18,0,0,0,5.88-1.85q2.69-1.85,2.79-6.73Z" transform="translate(-467.46 -332.44)"/><path class="cls-1" d="M565.57,391.27l1.16.09.62,0a3,3,0,0,0,2.17-.7,3.77,3.77,0,0,0,.73-2.72V347H580v41.08q0,5.64-2.22,8.34t-8.72,2.7l-1.32,0-2.17-.07ZM580,342.43h-9.74v-9H580Z" transform="translate(-467.46 -332.44)"/><path class="cls-1" d="M613.53,347.63a15.16,15.16,0,0,1,6.44,5.51,18.31,18.31,0,0,1,3,7.7,47.58,47.58,0,0,1,.32,7.39H596.12q.23,5.61,3.9,7.86a9.89,9.89,0,0,0,5.37,1.4,7.57,7.57,0,0,0,7.41-4.27h9.95a12.16,12.16,0,0,1-3.61,6.73q-5,5.43-14,5.43A20.31,20.31,0,0,1,592,380.81q-5.69-4.58-5.69-14.92,0-9.68,5.13-14.85t13.32-5.17A21.21,21.21,0,0,1,613.53,347.63ZM599,356a10.12,10.12,0,0,0-2.6,5.77h16.78a8.13,8.13,0,0,0-2.6-5.89,8.54,8.54,0,0,0-5.78-2A7.72,7.72,0,0,0,599,356Z" transform="translate(-467.46 -332.44)"/><path class="cls-1" d="M635.74,372.24a6.49,6.49,0,0,0,1.34,3.69q1.82,1.95,6.73,1.95a10.3,10.3,0,0,0,4.58-.85,2.86,2.86,0,0,0,.33-5.06q-1.37-.85-10.19-2.94-6.35-1.57-8.95-3.93a8.52,8.52,0,0,1-2.6-6.7,11.61,11.61,0,0,1,4.06-8.87q4.06-3.71,11.42-3.71,7,0,11.39,2.79t5.05,9.62h-9.74a5.76,5.76,0,0,0-1.06-3q-1.61-2-5.48-2a7.9,7.9,0,0,0-4.54,1,2.85,2.85,0,0,0-1.35,2.32,2.54,2.54,0,0,0,1.44,2.43q1.44.79,10.17,2.7,5.82,1.37,8.73,4.14a9.39,9.39,0,0,1,2.87,7,11.31,11.31,0,0,1-4.13,9q-4.13,3.5-12.76,3.5-8.8,0-13-3.71a12.05,12.05,0,0,1-4.2-9.45Z" transform="translate(-467.46 -332.44)"/><path class="cls-1" d="M663.29,354.15v-6.94h5.2V336.83h9.64v10.39h6v6.94h-6v19.69q0,2.29.58,2.85t3.55.56l.94,0,1-.05v7.28l-4.61.17q-6.9.24-9.43-2.39-1.64-1.67-1.64-5.16V354.15Z" transform="translate(-467.46 -332.44)"/><path class="cls-1" d="M700.44,342.43h-9.88v-9h9.88Zm-9.88,4.44h9.88v37.26h-9.88Z" transform="translate(-467.46 -332.44)"/><path class="cls-1" d="M732.16,360.24a8.63,8.63,0,0,0-1.4-3.76,5.9,5.9,0,0,0-5.11-2.26q-4.93,0-6.75,4.89a20.29,20.29,0,0,0-1,6.89,18.65,18.65,0,0,0,1,6.58,6.51,6.51,0,0,0,6.58,4.65q3.43,0,4.87-1.85a9.16,9.16,0,0,0,1.75-4.79H742a16.3,16.3,0,0,1-3.22,8.41q-4.58,6.39-13.58,6.39T712,380.06q-4.24-5.33-4.24-13.83,0-9.59,4.69-14.92T725.37,346q7,0,11.48,3.14t5.29,11.11Z" transform="translate(-467.46 -332.44)"/><path class="cls-1" d="M778.2,384.13h-9.74V333.75h9.74Z" transform="translate(-467.46 -332.44)"/><path class="cls-1" d="M797.65,384.13h-9.74V333.75h9.74Z" transform="translate(-467.46 -332.44)"/><path class="cls-1" d="M821.9,361.47a15.39,15.39,0,0,0,3.89-.85,2.93,2.93,0,0,0,2.1-2.77,3.27,3.27,0,0,0-1.61-3.16,10.18,10.18,0,0,0-4.73-.87q-3.5,0-5,1.71a7,7,0,0,0-1.39,3.42h-9.4a14.26,14.26,0,0,1,2.75-8q3.88-4.92,13.32-4.92a23.75,23.75,0,0,1,10.92,2.43q4.77,2.43,4.77,9.16v17.09q0,1.78.07,4.31a5.41,5.41,0,0,0,.58,2.6,3.48,3.48,0,0,0,1.44,1.13v1.44h-10.6a10.75,10.75,0,0,1-.62-2.12q-.17-1-.27-2.26a20.12,20.12,0,0,1-4.68,3.73,14.13,14.13,0,0,1-7.15,1.81,12.34,12.34,0,0,1-8.41-2.89q-3.32-2.89-3.32-8.19,0-6.87,5.34-9.95a23.84,23.84,0,0,1,8.61-2.39Zm6,4.55A10.76,10.76,0,0,1,826,367a16,16,0,0,1-2.62.67l-2.22.41a14.6,14.6,0,0,0-4.48,1.33,4.45,4.45,0,0,0-2.3,4.14,4.32,4.32,0,0,0,1.41,3.61,5.34,5.34,0,0,0,3.42,1.11,10.18,10.18,0,0,0,5.88-1.85q2.69-1.85,2.79-6.73Z" transform="translate(-467.46 -332.44)"/><path class="cls-1" d="M892.56,347a10.83,10.83,0,0,1,4.34,3.35,10.71,10.71,0,0,1,2.12,4.79,33.11,33.11,0,0,1,.34,5.5l-.07,23.48h-10V360.41a7.8,7.8,0,0,0-.68-3.49q-1.3-2.6-4.79-2.6a5.6,5.6,0,0,0-5.57,3.35,10.52,10.52,0,0,0-.79,4.27v22.18h-9.81V361.95a12.47,12.47,0,0,0-.68-4.82q-1.23-2.7-4.82-2.7-4.17,0-5.61,2.7a10.4,10.4,0,0,0-.79,4.58v22.42h-9.88V346.94h9.47v5.43a15.66,15.66,0,0,1,3.42-4.14,13.52,13.52,0,0,1,14.25-.31,11,11,0,0,1,3.21,4.48,12.38,12.38,0,0,1,4.75-4.82,14.5,14.5,0,0,1,6.7-1.54A13,13,0,0,1,892.56,347Z" transform="translate(-467.46 -332.44)"/><path class="cls-1" d="M923.08,361.47a15.39,15.39,0,0,0,3.89-.85,2.93,2.93,0,0,0,2.1-2.77,3.27,3.27,0,0,0-1.61-3.16,10.18,10.18,0,0,0-4.73-.87q-3.5,0-5,1.71a7,7,0,0,0-1.39,3.42H907a14.26,14.26,0,0,1,2.75-8q3.88-4.92,13.32-4.92A23.75,23.75,0,0,1,934,348.41q4.77,2.43,4.77,9.16v17.09q0,1.78.07,4.31a5.41,5.41,0,0,0,.58,2.6,3.48,3.48,0,0,0,1.44,1.13v1.44h-10.6a10.75,10.75,0,0,1-.62-2.12q-.17-1-.27-2.26a20.12,20.12,0,0,1-4.68,3.73,14.13,14.13,0,0,1-7.15,1.81,12.34,12.34,0,0,1-8.41-2.89q-3.32-2.89-3.32-8.19,0-6.87,5.34-9.95a23.84,23.84,0,0,1,8.61-2.39Zm6,4.55a10.76,10.76,0,0,1-1.89.94,16,16,0,0,1-2.62.67l-2.22.41a14.6,14.6,0,0,0-4.48,1.33,4.45,4.45,0,0,0-2.3,4.14,4.32,4.32,0,0,0,1.41,3.61,5.34,5.34,0,0,0,3.42,1.11,10.18,10.18,0,0,0,5.88-1.85q2.69-1.85,2.79-6.73Z" transform="translate(-467.46 -332.44)"/><path class="cls-1" d="M954.8,372.24a6.48,6.48,0,0,0,1.34,3.69q1.82,1.95,6.73,1.95a10.3,10.3,0,0,0,4.58-.85,2.74,2.74,0,0,0,1.7-2.56,2.76,2.76,0,0,0-1.37-2.5q-1.37-.85-10.19-2.94-6.35-1.57-8.95-3.93a8.52,8.52,0,0,1-2.6-6.7,11.61,11.61,0,0,1,4.06-8.87q4.06-3.71,11.42-3.71,7,0,11.39,2.79t5.05,9.62h-9.74a5.76,5.76,0,0,0-1.06-3q-1.61-2-5.48-2a7.9,7.9,0,0,0-4.54,1,2.85,2.85,0,0,0-1.35,2.32,2.54,2.54,0,0,0,1.44,2.43q1.44.79,10.17,2.7,5.82,1.37,8.73,4.14a9.39,9.39,0,0,1,2.87,7,11.31,11.31,0,0,1-4.13,9q-4.13,3.5-12.76,3.5-8.8,0-13-3.71a12.05,12.05,0,0,1-4.2-9.45Z" transform="translate(-467.46 -332.44)"/></svg>